<?xml version="1.0" encoding="utf-8" standalone="no"?>
<!DOCTYPE svg PUBLIC "-//W3C//DTD SVG 1.1//EN"
  "http://www.w3.org/Graphics/SVG/1.1/DTD/svg11.dtd">
<!-- Created with matplotlib (http://matplotlib.org/) -->
<svg height="345.6pt" version="1.1" viewBox="0 0 460.8 345.6" width="460.8pt" xmlns="http://www.w3.org/2000/svg" xmlns:xlink="http://www.w3.org/1999/xlink">
 <defs>
  <style type="text/css">
*{stroke-linecap:butt;stroke-linejoin:round;}
  </style>
 </defs>
 <g id="figure_1">
  <g id="patch_1">
   <path d="M 0 345.6 
L 460.8 345.6 
L 460.8 0 
L 0 0 
z
" style="fill:#ffffff;"/>
  </g>
  <g id="axes_1">
   <g id="patch_2">
    <path d="M 57.6 307.584 
L 414.72 307.584 
L 414.72 41.472 
L 57.6 41.472 
z
" style="fill:#ffffff;"/>
   </g>
   <g id="PathCollection_1">
    <defs>
     <path d="M 0 5 
C 1.326016 5 2.597899 4.473168 3.535534 3.535534 
C 4.473168 2.597899 5 1.326016 5 0 
C 5 -1.326016 4.473168 -2.597899 3.535534 -3.535534 
C 2.597899 -4.473168 1.326016 -5 0 -5 
C -1.326016 -5 -2.597899 -4.473168 -3.535534 -3.535534 
C -4.473168 -2.597899 -5 -1.326016 -5 0 
C -5 1.326016 -4.473168 2.597899 -3.535534 3.535534 
C -2.597899 4.473168 -1.326016 5 0 5 
z
" id="m4a6ea913fb" style="stroke:#000000;"/>
    </defs>
    <g clip-path="url(#pd592d096cd)">
     <use style="fill:#ffffff;stroke:#000000;" x="212.979351" xlink:href="#m4a6ea913fb" y="183.310645"/>
    </g>
   </g>
   <g id="PathCollection_2">
    <g clip-path="url(#pd592d096cd)">
     <use style="fill:#ffffff;stroke:#000000;" x="236.361162" xlink:href="#m4a6ea913fb" y="178.032388"/>
    </g>
   </g>
   <g id="PathCollection_3">
    <g clip-path="url(#pd592d096cd)">
     <use style="fill:#ffffff;stroke:#000000;" x="215.366904" xlink:href="#m4a6ea913fb" y="193.689819"/>
    </g>
   </g>
   <g id="PathCollection_4">
    <g clip-path="url(#pd592d096cd)">
     <use style="fill:#ffffff;stroke:#000000;" x="197.844547" xlink:href="#m4a6ea913fb" y="175.598951"/>
    </g>
   </g>
   <g id="PathCollection_5">
    <g clip-path="url(#pd592d096cd)">
     <use style="fill:#ffffff;stroke:#000000;" x="221.542754" xlink:href="#m4a6ea913fb" y="193.90185"/>
    </g>
   </g>
   <g id="PathCollection_6">
    <g clip-path="url(#pd592d096cd)">
     <use style="fill:#ffffff;stroke:#000000;" x="216.424956" xlink:href="#m4a6ea913fb" y="164.648269"/>
    </g>
   </g>
   <g id="PathCollection_7">
    <g clip-path="url(#pd592d096cd)">
     <use style="fill:#ffffff;stroke:#000000;" x="219.509092" xlink:href="#m4a6ea913fb" y="174.929234"/>
    </g>
   </g>
   <g id="PathCollection_8">
    <g clip-path="url(#pd592d096cd)">
     <use style="fill:#ffffff;stroke:#000000;" x="230.43777" xlink:href="#m4a6ea913fb" y="168.55394"/>
    </g>
   </g>
   <g id="PathCollection_9">
    <g clip-path="url(#pd592d096cd)">
     <use style="fill:#ffffff;stroke:#000000;" x="227.430898" xlink:href="#m4a6ea913fb" y="191.416229"/>
    </g>
   </g>
   <g id="PathCollection_10">
    <g clip-path="url(#pd592d096cd)">
     <use style="fill:#ffffff;stroke:#000000;" x="307.868175" xlink:href="#m4a6ea913fb" y="82.380458"/>
    </g>
   </g>
   <g id="PathCollection_11">
    <g clip-path="url(#pd592d096cd)">
     <use style="fill:#ffffff;stroke:#000000;" x="206.070387" xlink:href="#m4a6ea913fb" y="97.61078"/>
    </g>
   </g>
   <g id="PathCollection_12">
    <g clip-path="url(#pd592d096cd)">
     <use style="fill:#ffffff;stroke:#000000;" x="271.481727" xlink:href="#m4a6ea913fb" y="185.785788"/>
    </g>
   </g>
   <g id="PathCollection_13">
    <g clip-path="url(#pd592d096cd)">
     <use style="fill:#ffffff;stroke:#000000;" x="256.853622" xlink:href="#m4a6ea913fb" y="179.234337"/>
    </g>
   </g>
   <g id="PathCollection_14">
    <g clip-path="url(#pd592d096cd)">
     <use style="fill:#ffffff;stroke:#000000;" x="137.721692" xlink:href="#m4a6ea913fb" y="115.041604"/>
    </g>
   </g>
   <g id="PathCollection_15">
    <g clip-path="url(#pd592d096cd)">
     <use style="fill:#ffffff;stroke:#000000;" x="216.994941" xlink:href="#m4a6ea913fb" y="145.39397"/>
    </g>
   </g>
   <g id="PathCollection_16">
    <g clip-path="url(#pd592d096cd)">
     <use style="fill:#ffffff;stroke:#000000;" x="204.270783" xlink:href="#m4a6ea913fb" y="73.988856"/>
    </g>
   </g>
   <g id="PathCollection_17">
    <g clip-path="url(#pd592d096cd)">
     <use style="fill:#ffffff;stroke:#000000;" x="220.407005" xlink:href="#m4a6ea913fb" y="174.215561"/>
    </g>
   </g>
   <g id="PathCollection_18">
    <g clip-path="url(#pd592d096cd)">
     <use style="fill:#ffffff;stroke:#000000;" x="192.901293" xlink:href="#m4a6ea913fb" y="142.742705"/>
    </g>
   </g>
   <g id="PathCollection_19">
    <g clip-path="url(#pd592d096cd)">
     <use style="fill:#ffffff;stroke:#000000;" x="137.003507" xlink:href="#m4a6ea913fb" y="110.720137"/>
    </g>
   </g>
   <g id="PathCollection_20">
    <g clip-path="url(#pd592d096cd)">
     <use style="fill:#ffffff;stroke:#000000;" x="240.054155" xlink:href="#m4a6ea913fb" y="190.054934"/>
    </g>
   </g>
   <g id="PathCollection_21">
    <g clip-path="url(#pd592d096cd)">
     <use style="fill:#ffffff;stroke:#000000;" x="189.86511" xlink:href="#m4a6ea913fb" y="169.858221"/>
    </g>
   </g>
   <g id="PathCollection_22">
    <g clip-path="url(#pd592d096cd)">
     <use style="fill:#ffffff;stroke:#000000;" x="282.103289" xlink:href="#m4a6ea913fb" y="164.95792"/>
    </g>
   </g>
   <g id="PathCollection_23">
    <g clip-path="url(#pd592d096cd)">
     <use style="fill:#ffffff;stroke:#000000;" x="237.45589" xlink:href="#m4a6ea913fb" y="143.692512"/>
    </g>
   </g>
   <g id="PathCollection_24">
    <g clip-path="url(#pd592d096cd)">
     <use style="fill:#ffffff;stroke:#000000;" x="256.853622" xlink:href="#m4a6ea913fb" y="179.234337"/>
    </g>
   </g>
   <g id="PathCollection_25">
    <g clip-path="url(#pd592d096cd)">
     <use style="fill:#ffffff;stroke:#000000;" x="238.392266" xlink:href="#m4a6ea913fb" y="161.461313"/>
    </g>
   </g>
   <g id="PathCollection_26">
    <g clip-path="url(#pd592d096cd)">
     <use style="fill:#ffffff;stroke:#000000;" x="200.487454" xlink:href="#m4a6ea913fb" y="195.93629"/>
    </g>
   </g>
   <g id="PathCollection_27">
    <g clip-path="url(#pd592d096cd)">
     <use style="fill:#ffffff;stroke:#000000;" x="142.786435" xlink:href="#m4a6ea913fb" y="149.865625"/>
    </g>
   </g>
   <g id="PathCollection_28">
    <g clip-path="url(#pd592d096cd)">
     <use style="fill:#ffffff;stroke:#000000;" x="214.469035" xlink:href="#m4a6ea913fb" y="191.569932"/>
    </g>
   </g>
   <g id="PathCollection_29">
    <g clip-path="url(#pd592d096cd)">
     <use style="fill:#ffffff;stroke:#000000;" x="204.270783" xlink:href="#m4a6ea913fb" y="73.988856"/>
    </g>
   </g>
   <g id="PathCollection_30">
    <g clip-path="url(#pd592d096cd)">
     <use style="fill:#ffffff;stroke:#000000;" x="329.587377" xlink:href="#m4a6ea913fb" y="182.023969"/>
    </g>
   </g>
   <g id="PathCollection_31">
    <g clip-path="url(#pd592d096cd)">
     <use style="fill:#ffffff;stroke:#000000;" x="214.469035" xlink:href="#m4a6ea913fb" y="191.569932"/>
    </g>
   </g>
   <g id="PathCollection_32">
    <g clip-path="url(#pd592d096cd)">
     <use style="fill:#ffffff;stroke:#000000;" x="308.672506" xlink:href="#m4a6ea913fb" y="178.243996"/>
    </g>
   </g>
   <g id="PathCollection_33">
    <g clip-path="url(#pd592d096cd)">
     <use style="fill:#ffffff;stroke:#000000;" x="233.695969" xlink:href="#m4a6ea913fb" y="176.31098"/>
    </g>
   </g>
   <g id="PathCollection_34">
    <g clip-path="url(#pd592d096cd)">
     <use style="fill:#ffffff;stroke:#000000;" x="310.544676" xlink:href="#m4a6ea913fb" y="143.212125"/>
    </g>
   </g>
   <g id="PathCollection_35">
    <g clip-path="url(#pd592d096cd)">
     <use style="fill:#ffffff;stroke:#000000;" x="218.569831" xlink:href="#m4a6ea913fb" y="185.589985"/>
    </g>
   </g>
   <g id="PathCollection_36">
    <g clip-path="url(#pd592d096cd)">
     <use style="fill:#ffffff;stroke:#000000;" x="205.315431" xlink:href="#m4a6ea913fb" y="189.89996"/>
    </g>
   </g>
   <g id="PathCollection_37">
    <g clip-path="url(#pd592d096cd)">
     <use style="fill:#ffffff;stroke:#000000;" x="255.58481" xlink:href="#m4a6ea913fb" y="178.824382"/>
    </g>
   </g>
   <g id="PathCollection_38">
    <g clip-path="url(#pd592d096cd)">
     <use style="fill:#ffffff;stroke:#000000;" x="208.812277" xlink:href="#m4a6ea913fb" y="194.385225"/>
    </g>
   </g>
   <g id="PathCollection_39">
    <g clip-path="url(#pd592d096cd)">
     <use style="fill:#ffffff;stroke:#000000;" x="196.878863" xlink:href="#m4a6ea913fb" y="138.73609"/>
    </g>
   </g>
   <g id="PathCollection_40">
    <g clip-path="url(#pd592d096cd)">
     <use style="fill:#ffffff;stroke:#000000;" x="220.218751" xlink:href="#m4a6ea913fb" y="187.363172"/>
    </g>
   </g>
   <g id="PathCollection_41">
    <g clip-path="url(#pd592d096cd)">
     <use style="fill:#ffffff;stroke:#000000;" x="217.562494" xlink:href="#m4a6ea913fb" y="185.791012"/>
    </g>
   </g>
   <g id="PathCollection_42">
    <g clip-path="url(#pd592d096cd)">
     <use style="fill:#ffffff;stroke:#000000;" x="235.970482" xlink:href="#m4a6ea913fb" y="187.06256"/>
    </g>
   </g>
   <g id="PathCollection_43">
    <g clip-path="url(#pd592d096cd)">
     <use style="fill:#ffffff;stroke:#000000;" x="255.58481" xlink:href="#m4a6ea913fb" y="178.824382"/>
    </g>
   </g>
   <g id="PathCollection_44">
    <g clip-path="url(#pd592d096cd)">
     <use style="fill:#ffffff;stroke:#000000;" x="225.689854" xlink:href="#m4a6ea913fb" y="176.236041"/>
    </g>
   </g>
   <g id="PathCollection_45">
    <g clip-path="url(#pd592d096cd)">
     <use style="fill:#ffffff;stroke:#000000;" x="241.450485" xlink:href="#m4a6ea913fb" y="187.460618"/>
    </g>
   </g>
   <g id="PathCollection_46">
    <g clip-path="url(#pd592d096cd)">
     <use style="fill:#ffffff;stroke:#000000;" x="292.838231" xlink:href="#m4a6ea913fb" y="128.593636"/>
    </g>
   </g>
   <g id="PathCollection_47">
    <g clip-path="url(#pd592d096cd)">
     <use style="fill:#ffffff;stroke:#000000;" x="205.502184" xlink:href="#m4a6ea913fb" y="192.552587"/>
    </g>
   </g>
   <g id="PathCollection_48">
    <g clip-path="url(#pd592d096cd)">
     <use style="fill:#ffffff;stroke:#000000;" x="204.904529" xlink:href="#m4a6ea913fb" y="192.792881"/>
    </g>
   </g>
   <g id="PathCollection_49">
    <g clip-path="url(#pd592d096cd)">
     <use style="fill:#ffffff;stroke:#000000;" x="245.861098" xlink:href="#m4a6ea913fb" y="163.439436"/>
    </g>
   </g>
   <g id="PathCollection_50">
    <g clip-path="url(#pd592d096cd)">
     <use style="fill:#ffffff;stroke:#000000;" x="260.846341" xlink:href="#m4a6ea913fb" y="178.475725"/>
    </g>
   </g>
   <g id="PathCollection_51">
    <g clip-path="url(#pd592d096cd)">
     <use style="fill:#ffffff;stroke:#000000;" x="230.480905" xlink:href="#m4a6ea913fb" y="178.06807"/>
    </g>
   </g>
   <g id="PathCollection_52">
    <g clip-path="url(#pd592d096cd)">
     <use style="fill:#ffffff;stroke:#000000;" x="135.110139" xlink:href="#m4a6ea913fb" y="99.392249"/>
    </g>
   </g>
   <g id="PathCollection_53">
    <g clip-path="url(#pd592d096cd)">
     <use style="fill:#ffffff;stroke:#000000;" x="211.221958" xlink:href="#m4a6ea913fb" y="140.068037"/>
    </g>
   </g>
   <g id="PathCollection_54">
    <g clip-path="url(#pd592d096cd)">
     <use style="fill:#ffffff;stroke:#000000;" x="181.118727" xlink:href="#m4a6ea913fb" y="190.333893"/>
    </g>
   </g>
   <g id="PathCollection_55">
    <g clip-path="url(#pd592d096cd)">
     <use style="fill:#ffffff;stroke:#000000;" x="232.931183" xlink:href="#m4a6ea913fb" y="157.849461"/>
    </g>
   </g>
   <g id="PathCollection_56">
    <g clip-path="url(#pd592d096cd)">
     <use style="fill:#ffffff;stroke:#000000;" x="228.680722" xlink:href="#m4a6ea913fb" y="136.227648"/>
    </g>
   </g>
   <g id="PathCollection_57">
    <g clip-path="url(#pd592d096cd)">
     <use style="fill:#ffffff;stroke:#000000;" x="126.839805" xlink:href="#m4a6ea913fb" y="49.869206"/>
    </g>
   </g>
   <g id="PathCollection_58">
    <g clip-path="url(#pd592d096cd)">
     <use style="fill:#ffffff;stroke:#000000;" x="206.742276" xlink:href="#m4a6ea913fb" y="196.259293"/>
    </g>
   </g>
   <g id="PathCollection_59">
    <g clip-path="url(#pd592d096cd)">
     <use style="fill:#ffffff;stroke:#000000;" x="204.218198" xlink:href="#m4a6ea913fb" y="133.667194"/>
    </g>
   </g>
   <g id="PathCollection_60">
    <g clip-path="url(#pd592d096cd)">
     <use style="fill:#ffffff;stroke:#000000;" x="194.955347" xlink:href="#m4a6ea913fb" y="115.549632"/>
    </g>
   </g>
   <g id="PathCollection_61">
    <defs>
     <path d="M 0 5 
C 1.326016 5 2.597899 4.473168 3.535534 3.535534 
C 4.473168 2.597899 5 1.326016 5 0 
C 5 -1.326016 4.473168 -2.597899 3.535534 -3.535534 
C 2.597899 -4.473168 1.326016 -5 0 -5 
C -1.326016 -5 -2.597899 -4.473168 -3.535534 -3.535534 
C -4.473168 -2.597899 -5 -1.326016 -5 0 
C -5 1.326016 -4.473168 2.597899 -3.535534 3.535534 
C -2.597899 4.473168 -1.326016 5 0 5 
z
" id="m19286ca9a3" style="stroke:#000000;"/>
    </defs>
    <g clip-path="url(#pd592d096cd)">
     <use style="stroke:#000000;" x="306.284569" xlink:href="#m19286ca9a3" y="183.521534"/>
    </g>
   </g>
   <g id="PathCollection_62">
    <g clip-path="url(#pd592d096cd)">
     <use style="stroke:#000000;" x="212.549853" xlink:href="#m19286ca9a3" y="195.657373"/>
    </g>
   </g>
   <g id="PathCollection_63">
    <g clip-path="url(#pd592d096cd)">
     <use style="stroke:#000000;" x="298.394128" xlink:href="#m19286ca9a3" y="185.216513"/>
    </g>
   </g>
   <g id="PathCollection_64">
    <g clip-path="url(#pd592d096cd)">
     <use style="stroke:#000000;" x="279.216283" xlink:href="#m19286ca9a3" y="188.276271"/>
    </g>
   </g>
   <g id="PathCollection_65">
    <g clip-path="url(#pd592d096cd)">
     <use style="stroke:#000000;" x="288.280347" xlink:href="#m19286ca9a3" y="186.120677"/>
    </g>
   </g>
   <g id="PathCollection_66">
    <g clip-path="url(#pd592d096cd)">
     <use style="stroke:#000000;" x="266.229511" xlink:href="#m19286ca9a3" y="190.215305"/>
    </g>
   </g>
   <g id="PathCollection_67">
    <g clip-path="url(#pd592d096cd)">
     <use style="stroke:#000000;" x="267.634943" xlink:href="#m19286ca9a3" y="188.93412"/>
    </g>
   </g>
   <g id="PathCollection_68">
    <g clip-path="url(#pd592d096cd)">
     <use style="stroke:#000000;" x="195.997282" xlink:href="#m19286ca9a3" y="197.537855"/>
    </g>
   </g>
   <g id="PathCollection_69">
    <g clip-path="url(#pd592d096cd)">
     <use style="stroke:#000000;" x="262.984768" xlink:href="#m19286ca9a3" y="183.236431"/>
    </g>
   </g>
   <g id="PathCollection_70">
    <g clip-path="url(#pd592d096cd)">
     <use style="stroke:#000000;" x="264.089976" xlink:href="#m19286ca9a3" y="189.113073"/>
    </g>
   </g>
   <g id="PathCollection_71">
    <g clip-path="url(#pd592d096cd)">
     <use style="stroke:#000000;" x="261.075129" xlink:href="#m19286ca9a3" y="189.574829"/>
    </g>
   </g>
   <g id="PathCollection_72">
    <g clip-path="url(#pd592d096cd)">
     <use style="stroke:#000000;" x="208.448675" xlink:href="#m19286ca9a3" y="183.292381"/>
    </g>
   </g>
   <g id="PathCollection_73">
    <g clip-path="url(#pd592d096cd)">
     <use style="stroke:#000000;" x="277.108714" xlink:href="#m19286ca9a3" y="188.193203"/>
    </g>
   </g>
   <g id="PathCollection_74">
    <g clip-path="url(#pd592d096cd)">
     <use style="stroke:#000000;" x="249.709268" xlink:href="#m19286ca9a3" y="191.154621"/>
    </g>
   </g>
   <g id="PathCollection_75">
    <g clip-path="url(#pd592d096cd)">
     <use style="stroke:#000000;" x="223.768379" xlink:href="#m19286ca9a3" y="187.823807"/>
    </g>
   </g>
   <g id="PathCollection_76">
    <g clip-path="url(#pd592d096cd)">
     <use style="stroke:#000000;" x="262.870581" xlink:href="#m19286ca9a3" y="189.198553"/>
    </g>
   </g>
   <g id="PathCollection_77">
    <g clip-path="url(#pd592d096cd)">
     <use style="stroke:#000000;" x="262.870581" xlink:href="#m19286ca9a3" y="189.198553"/>
    </g>
   </g>
   <g id="PathCollection_78">
    <g clip-path="url(#pd592d096cd)">
     <use style="stroke:#000000;" x="252.284602" xlink:href="#m19286ca9a3" y="191.331728"/>
    </g>
   </g>
   <g id="PathCollection_79">
    <g clip-path="url(#pd592d096cd)">
     <use style="stroke:#000000;" x="265.361534" xlink:href="#m19286ca9a3" y="186.807786"/>
    </g>
   </g>
   <g id="PathCollection_80">
    <g clip-path="url(#pd592d096cd)">
     <use style="stroke:#000000;" x="212.549853" xlink:href="#m19286ca9a3" y="195.657373"/>
    </g>
   </g>
   <g id="PathCollection_81">
    <g clip-path="url(#pd592d096cd)">
     <use style="stroke:#000000;" x="220.248455" xlink:href="#m19286ca9a3" y="193.857061"/>
    </g>
   </g>
   <g id="PathCollection_82">
    <g clip-path="url(#pd592d096cd)">
     <use style="stroke:#000000;" x="265.361534" xlink:href="#m19286ca9a3" y="186.807786"/>
    </g>
   </g>
   <g id="PathCollection_83">
    <g clip-path="url(#pd592d096cd)">
     <use style="stroke:#000000;" x="265.909726" xlink:href="#m19286ca9a3" y="188.032432"/>
    </g>
   </g>
   <g id="PathCollection_84">
    <g clip-path="url(#pd592d096cd)">
     <use style="stroke:#000000;" x="261.075129" xlink:href="#m19286ca9a3" y="189.574829"/>
    </g>
   </g>
   <g id="matplotlib.axis_1">
    <g id="xtick_1">
     <g id="line2d_1">
      <defs>
       <path d="M 0 0 
L 0 3.5 
" id="ma76917a636" style="stroke:#000000;stroke-width:0.8;"/>
      </defs>
      <g>
       <use style="stroke:#000000;stroke-width:0.8;" x="83.108571" xlink:href="#ma76917a636" y="307.584"/>
      </g>
     </g>
     <g id="text_1">
      <!-- −6 -->
      <defs>
       <path d="M 10.59375 35.5 
L 73.1875 35.5 
L 73.1875 27.203125 
L 10.59375 27.203125 
z
" id="DejaVuSans-2212"/>
       <path d="M 33.015625 40.375 
Q 26.375 40.375 22.484375 35.828125 
Q 18.609375 31.296875 18.609375 23.390625 
Q 18.609375 15.53125 22.484375 10.953125 
Q 26.375 6.390625 33.015625 6.390625 
Q 39.65625 6.390625 43.53125 10.953125 
Q 47.40625 15.53125 47.40625 23.390625 
Q 47.40625 31.296875 43.53125 35.828125 
Q 39.65625 40.375 33.015625 40.375 
z
M 52.59375 71.296875 
L 52.59375 62.3125 
Q 48.875 64.0625 45.09375 64.984375 
Q 41.3125 65.921875 37.59375 65.921875 
Q 27.828125 65.921875 22.671875 59.328125 
Q 17.53125 52.734375 16.796875 39.40625 
Q 19.671875 43.65625 24.015625 45.921875 
Q 28.375 48.1875 33.59375 48.1875 
Q 44.578125 48.1875 50.953125 41.515625 
Q 57.328125 34.859375 57.328125 23.390625 
Q 57.328125 12.15625 50.6875 5.359375 
Q 44.046875 -1.421875 33.015625 -1.421875 
Q 20.359375 -1.421875 13.671875 8.265625 
Q 6.984375 17.96875 6.984375 36.375 
Q 6.984375 53.65625 15.1875 63.9375 
Q 23.390625 74.21875 37.203125 74.21875 
Q 40.921875 74.21875 44.703125 73.484375 
Q 48.484375 72.75 52.59375 71.296875 
z
" id="DejaVuSans-36"/>
      </defs>
      <g transform="translate(75.737478 322.182437)scale(0.1 -0.1)">
       <use xlink:href="#DejaVuSans-2212"/>
       <use x="83.789062" xlink:href="#DejaVuSans-36"/>
      </g>
     </g>
    </g>
    <g id="xtick_2">
     <g id="line2d_2">
      <g>
       <use style="stroke:#000000;stroke-width:0.8;" x="134.125714" xlink:href="#ma76917a636" y="307.584"/>
      </g>
     </g>
     <g id="text_2">
      <!-- −4 -->
      <defs>
       <path d="M 37.796875 64.3125 
L 12.890625 25.390625 
L 37.796875 25.390625 
z
M 35.203125 72.90625 
L 47.609375 72.90625 
L 47.609375 25.390625 
L 58.015625 25.390625 
L 58.015625 17.1875 
L 47.609375 17.1875 
L 47.609375 0 
L 37.796875 0 
L 37.796875 17.1875 
L 4.890625 17.1875 
L 4.890625 26.703125 
z
" id="DejaVuSans-34"/>
      </defs>
      <g transform="translate(126.754621 322.182437)scale(0.1 -0.1)">
       <use xlink:href="#DejaVuSans-2212"/>
       <use x="83.789062" xlink:href="#DejaVuSans-34"/>
      </g>
     </g>
    </g>
    <g id="xtick_3">
     <g id="line2d_3">
      <g>
       <use style="stroke:#000000;stroke-width:0.8;" x="185.142857" xlink:href="#ma76917a636" y="307.584"/>
      </g>
     </g>
     <g id="text_3">
      <!-- −2 -->
      <defs>
       <path d="M 19.1875 8.296875 
L 53.609375 8.296875 
L 53.609375 0 
L 7.328125 0 
L 7.328125 8.296875 
Q 12.9375 14.109375 22.625 23.890625 
Q 32.328125 33.6875 34.8125 36.53125 
Q 39.546875 41.84375 41.421875 45.53125 
Q 43.3125 49.21875 43.3125 52.78125 
Q 43.3125 58.59375 39.234375 62.25 
Q 35.15625 65.921875 28.609375 65.921875 
Q 23.96875 65.921875 18.8125 64.3125 
Q 13.671875 62.703125 7.8125 59.421875 
L 7.8125 69.390625 
Q 13.765625 71.78125 18.9375 73 
Q 24.125 74.21875 28.421875 74.21875 
Q 39.75 74.21875 46.484375 68.546875 
Q 53.21875 62.890625 53.21875 53.421875 
Q 53.21875 48.921875 51.53125 44.890625 
Q 49.859375 40.875 45.40625 35.40625 
Q 44.1875 33.984375 37.640625 27.21875 
Q 31.109375 20.453125 19.1875 8.296875 
z
" id="DejaVuSans-32"/>
      </defs>
      <g transform="translate(177.771763 322.182437)scale(0.1 -0.1)">
       <use xlink:href="#DejaVuSans-2212"/>
       <use x="83.789062" xlink:href="#DejaVuSans-32"/>
      </g>
     </g>
    </g>
    <g id="xtick_4">
     <g id="line2d_4">
      <g>
       <use style="stroke:#000000;stroke-width:0.8;" x="236.16" xlink:href="#ma76917a636" y="307.584"/>
      </g>
     </g>
     <g id="text_4">
      <!-- 0 -->
      <defs>
       <path d="M 31.78125 66.40625 
Q 24.171875 66.40625 20.328125 58.90625 
Q 16.5 51.421875 16.5 36.375 
Q 16.5 21.390625 20.328125 13.890625 
Q 24.171875 6.390625 31.78125 6.390625 
Q 39.453125 6.390625 43.28125 13.890625 
Q 47.125 21.390625 47.125 36.375 
Q 47.125 51.421875 43.28125 58.90625 
Q 39.453125 66.40625 31.78125 66.40625 
z
M 31.78125 74.21875 
Q 44.046875 74.21875 50.515625 64.515625 
Q 56.984375 54.828125 56.984375 36.375 
Q 56.984375 17.96875 50.515625 8.265625 
Q 44.046875 -1.421875 31.78125 -1.421875 
Q 19.53125 -1.421875 13.0625 8.265625 
Q 6.59375 17.96875 6.59375 36.375 
Q 6.59375 54.828125 13.0625 64.515625 
Q 19.53125 74.21875 31.78125 74.21875 
z
" id="DejaVuSans-30"/>
      </defs>
      <g transform="translate(232.97875 322.182437)scale(0.1 -0.1)">
       <use xlink:href="#DejaVuSans-30"/>
      </g>
     </g>
    </g>
    <g id="xtick_5">
     <g id="line2d_5">
      <g>
       <use style="stroke:#000000;stroke-width:0.8;" x="287.177143" xlink:href="#ma76917a636" y="307.584"/>
      </g>
     </g>
     <g id="text_5">
      <!-- 2 -->
      <g transform="translate(283.995893 322.182437)scale(0.1 -0.1)">
       <use xlink:href="#DejaVuSans-32"/>
      </g>
     </g>
    </g>
    <g id="xtick_6">
     <g id="line2d_6">
      <g>
       <use style="stroke:#000000;stroke-width:0.8;" x="338.194286" xlink:href="#ma76917a636" y="307.584"/>
      </g>
     </g>
     <g id="text_6">
      <!-- 4 -->
      <g transform="translate(335.013036 322.182437)scale(0.1 -0.1)">
       <use xlink:href="#DejaVuSans-34"/>
      </g>
     </g>
    </g>
    <g id="xtick_7">
     <g id="line2d_7">
      <g>
       <use style="stroke:#000000;stroke-width:0.8;" x="389.211429" xlink:href="#ma76917a636" y="307.584"/>
      </g>
     </g>
     <g id="text_7">
      <!-- 6 -->
      <g transform="translate(386.030179 322.182437)scale(0.1 -0.1)">
       <use xlink:href="#DejaVuSans-36"/>
      </g>
     </g>
    </g>
    <g id="text_8">
     <!-- principal component 1 -->
     <defs>
      <path d="M 18.109375 8.203125 
L 18.109375 -20.796875 
L 9.078125 -20.796875 
L 9.078125 54.6875 
L 18.109375 54.6875 
L 18.109375 46.390625 
Q 20.953125 51.265625 25.265625 53.625 
Q 29.59375 56 35.59375 56 
Q 45.5625 56 51.78125 48.09375 
Q 58.015625 40.1875 58.015625 27.296875 
Q 58.015625 14.40625 51.78125 6.484375 
Q 45.5625 -1.421875 35.59375 -1.421875 
Q 29.59375 -1.421875 25.265625 0.953125 
Q 20.953125 3.328125 18.109375 8.203125 
z
M 48.6875 27.296875 
Q 48.6875 37.203125 44.609375 42.84375 
Q 40.53125 48.484375 33.40625 48.484375 
Q 26.265625 48.484375 22.1875 42.84375 
Q 18.109375 37.203125 18.109375 27.296875 
Q 18.109375 17.390625 22.1875 11.75 
Q 26.265625 6.109375 33.40625 6.109375 
Q 40.53125 6.109375 44.609375 11.75 
Q 48.6875 17.390625 48.6875 27.296875 
z
" id="DejaVuSans-70"/>
      <path d="M 41.109375 46.296875 
Q 39.59375 47.171875 37.8125 47.578125 
Q 36.03125 48 33.890625 48 
Q 26.265625 48 22.1875 43.046875 
Q 18.109375 38.09375 18.109375 28.8125 
L 18.109375 0 
L 9.078125 0 
L 9.078125 54.6875 
L 18.109375 54.6875 
L 18.109375 46.1875 
Q 20.953125 51.171875 25.484375 53.578125 
Q 30.03125 56 36.53125 56 
Q 37.453125 56 38.578125 55.875 
Q 39.703125 55.765625 41.0625 55.515625 
z
" id="DejaVuSans-72"/>
      <path d="M 9.421875 54.6875 
L 18.40625 54.6875 
L 18.40625 0 
L 9.421875 0 
z
M 9.421875 75.984375 
L 18.40625 75.984375 
L 18.40625 64.59375 
L 9.421875 64.59375 
z
" id="DejaVuSans-69"/>
      <path d="M 54.890625 33.015625 
L 54.890625 0 
L 45.90625 0 
L 45.90625 32.71875 
Q 45.90625 40.484375 42.875 44.328125 
Q 39.84375 48.1875 33.796875 48.1875 
Q 26.515625 48.1875 22.3125 43.546875 
Q 18.109375 38.921875 18.109375 30.90625 
L 18.109375 0 
L 9.078125 0 
L 9.078125 54.6875 
L 18.109375 54.6875 
L 18.109375 46.1875 
Q 21.34375 51.125 25.703125 53.5625 
Q 30.078125 56 35.796875 56 
Q 45.21875 56 50.046875 50.171875 
Q 54.890625 44.34375 54.890625 33.015625 
z
" id="DejaVuSans-6e"/>
      <path d="M 48.78125 52.59375 
L 48.78125 44.1875 
Q 44.96875 46.296875 41.140625 47.34375 
Q 37.3125 48.390625 33.40625 48.390625 
Q 24.65625 48.390625 19.8125 42.84375 
Q 14.984375 37.3125 14.984375 27.296875 
Q 14.984375 17.28125 19.8125 11.734375 
Q 24.65625 6.203125 33.40625 6.203125 
Q 37.3125 6.203125 41.140625 7.25 
Q 44.96875 8.296875 48.78125 10.40625 
L 48.78125 2.09375 
Q 45.015625 0.34375 40.984375 -0.53125 
Q 36.96875 -1.421875 32.421875 -1.421875 
Q 20.0625 -1.421875 12.78125 6.34375 
Q 5.515625 14.109375 5.515625 27.296875 
Q 5.515625 40.671875 12.859375 48.328125 
Q 20.21875 56 33.015625 56 
Q 37.15625 56 41.109375 55.140625 
Q 45.0625 54.296875 48.78125 52.59375 
z
" id="DejaVuSans-63"/>
      <path d="M 34.28125 27.484375 
Q 23.390625 27.484375 19.1875 25 
Q 14.984375 22.515625 14.984375 16.5 
Q 14.984375 11.71875 18.140625 8.90625 
Q 21.296875 6.109375 26.703125 6.109375 
Q 34.1875 6.109375 38.703125 11.40625 
Q 43.21875 16.703125 43.21875 25.484375 
L 43.21875 27.484375 
z
M 52.203125 31.203125 
L 52.203125 0 
L 43.21875 0 
L 43.21875 8.296875 
Q 40.140625 3.328125 35.546875 0.953125 
Q 30.953125 -1.421875 24.3125 -1.421875 
Q 15.921875 -1.421875 10.953125 3.296875 
Q 6 8.015625 6 15.921875 
Q 6 25.140625 12.171875 29.828125 
Q 18.359375 34.515625 30.609375 34.515625 
L 43.21875 34.515625 
L 43.21875 35.40625 
Q 43.21875 41.609375 39.140625 45 
Q 35.0625 48.390625 27.6875 48.390625 
Q 23 48.390625 18.546875 47.265625 
Q 14.109375 46.140625 10.015625 43.890625 
L 10.015625 52.203125 
Q 14.9375 54.109375 19.578125 55.046875 
Q 24.21875 56 28.609375 56 
Q 40.484375 56 46.34375 49.84375 
Q 52.203125 43.703125 52.203125 31.203125 
z
" id="DejaVuSans-61"/>
      <path d="M 9.421875 75.984375 
L 18.40625 75.984375 
L 18.40625 0 
L 9.421875 0 
z
" id="DejaVuSans-6c"/>
      <path id="DejaVuSans-20"/>
      <path d="M 30.609375 48.390625 
Q 23.390625 48.390625 19.1875 42.75 
Q 14.984375 37.109375 14.984375 27.296875 
Q 14.984375 17.484375 19.15625 11.84375 
Q 23.34375 6.203125 30.609375 6.203125 
Q 37.796875 6.203125 41.984375 11.859375 
Q 46.1875 17.53125 46.1875 27.296875 
Q 46.1875 37.015625 41.984375 42.703125 
Q 37.796875 48.390625 30.609375 48.390625 
z
M 30.609375 56 
Q 42.328125 56 49.015625 48.375 
Q 55.71875 40.765625 55.71875 27.296875 
Q 55.71875 13.875 49.015625 6.21875 
Q 42.328125 -1.421875 30.609375 -1.421875 
Q 18.84375 -1.421875 12.171875 6.21875 
Q 5.515625 13.875 5.515625 27.296875 
Q 5.515625 40.765625 12.171875 48.375 
Q 18.84375 56 30.609375 56 
z
" id="DejaVuSans-6f"/>
      <path d="M 52 44.1875 
Q 55.375 50.25 60.0625 53.125 
Q 64.75 56 71.09375 56 
Q 79.640625 56 84.28125 50.015625 
Q 88.921875 44.046875 88.921875 33.015625 
L 88.921875 0 
L 79.890625 0 
L 79.890625 32.71875 
Q 79.890625 40.578125 77.09375 44.375 
Q 74.3125 48.1875 68.609375 48.1875 
Q 61.625 48.1875 57.5625 43.546875 
Q 53.515625 38.921875 53.515625 30.90625 
L 53.515625 0 
L 44.484375 0 
L 44.484375 32.71875 
Q 44.484375 40.625 41.703125 44.40625 
Q 38.921875 48.1875 33.109375 48.1875 
Q 26.21875 48.1875 22.15625 43.53125 
Q 18.109375 38.875 18.109375 30.90625 
L 18.109375 0 
L 9.078125 0 
L 9.078125 54.6875 
L 18.109375 54.6875 
L 18.109375 46.1875 
Q 21.1875 51.21875 25.484375 53.609375 
Q 29.78125 56 35.6875 56 
Q 41.65625 56 45.828125 52.96875 
Q 50 49.953125 52 44.1875 
z
" id="DejaVuSans-6d"/>
      <path d="M 56.203125 29.59375 
L 56.203125 25.203125 
L 14.890625 25.203125 
Q 15.484375 15.921875 20.484375 11.0625 
Q 25.484375 6.203125 34.421875 6.203125 
Q 39.59375 6.203125 44.453125 7.46875 
Q 49.3125 8.734375 54.109375 11.28125 
L 54.109375 2.78125 
Q 49.265625 0.734375 44.1875 -0.34375 
Q 39.109375 -1.421875 33.890625 -1.421875 
Q 20.796875 -1.421875 13.15625 6.1875 
Q 5.515625 13.8125 5.515625 26.8125 
Q 5.515625 40.234375 12.765625 48.109375 
Q 20.015625 56 32.328125 56 
Q 43.359375 56 49.78125 48.890625 
Q 56.203125 41.796875 56.203125 29.59375 
z
M 47.21875 32.234375 
Q 47.125 39.59375 43.09375 43.984375 
Q 39.0625 48.390625 32.421875 48.390625 
Q 24.90625 48.390625 20.390625 44.140625 
Q 15.875 39.890625 15.1875 32.171875 
z
" id="DejaVuSans-65"/>
      <path d="M 18.3125 70.21875 
L 18.3125 54.6875 
L 36.8125 54.6875 
L 36.8125 47.703125 
L 18.3125 47.703125 
L 18.3125 18.015625 
Q 18.3125 11.328125 20.140625 9.421875 
Q 21.96875 7.515625 27.59375 7.515625 
L 36.8125 7.515625 
L 36.8125 0 
L 27.59375 0 
Q 17.1875 0 13.234375 3.875 
Q 9.28125 7.765625 9.28125 18.015625 
L 9.28125 47.703125 
L 2.6875 47.703125 
L 2.6875 54.6875 
L 9.28125 54.6875 
L 9.28125 70.21875 
z
" id="DejaVuSans-74"/>
      <path d="M 12.40625 8.296875 
L 28.515625 8.296875 
L 28.515625 63.921875 
L 10.984375 60.40625 
L 10.984375 69.390625 
L 28.421875 72.90625 
L 38.28125 72.90625 
L 38.28125 8.296875 
L 54.390625 8.296875 
L 54.390625 0 
L 12.40625 0 
z
" id="DejaVuSans-31"/>
     </defs>
     <g transform="translate(179.960781 335.860562)scale(0.1 -0.1)">
      <use xlink:href="#DejaVuSans-70"/>
      <use x="63.476562" xlink:href="#DejaVuSans-72"/>
      <use x="104.589844" xlink:href="#DejaVuSans-69"/>
      <use x="132.373047" xlink:href="#DejaVuSans-6e"/>
      <use x="195.751953" xlink:href="#DejaVuSans-63"/>
      <use x="250.732422" xlink:href="#DejaVuSans-69"/>
      <use x="278.515625" xlink:href="#DejaVuSans-70"/>
      <use x="341.992188" xlink:href="#DejaVuSans-61"/>
      <use x="403.271484" xlink:href="#DejaVuSans-6c"/>
      <use x="431.054688" xlink:href="#DejaVuSans-20"/>
      <use x="462.841797" xlink:href="#DejaVuSans-63"/>
      <use x="517.822266" xlink:href="#DejaVuSans-6f"/>
      <use x="579.003906" xlink:href="#DejaVuSans-6d"/>
      <use x="676.416016" xlink:href="#DejaVuSans-70"/>
      <use x="739.892578" xlink:href="#DejaVuSans-6f"/>
      <use x="801.074219" xlink:href="#DejaVuSans-6e"/>
      <use x="864.453125" xlink:href="#DejaVuSans-65"/>
      <use x="925.976562" xlink:href="#DejaVuSans-6e"/>
      <use x="989.355469" xlink:href="#DejaVuSans-74"/>
      <use x="1028.564453" xlink:href="#DejaVuSans-20"/>
      <use x="1060.351562" xlink:href="#DejaVuSans-31"/>
     </g>
    </g>
   </g>
   <g id="matplotlib.axis_2">
    <g id="ytick_1">
     <g id="line2d_8">
      <defs>
       <path d="M 0 0 
L -3.5 0 
" id="m91866342c6" style="stroke:#000000;stroke-width:0.8;"/>
      </defs>
      <g>
       <use style="stroke:#000000;stroke-width:0.8;" x="57.6" xlink:href="#m91866342c6" y="288.576"/>
      </g>
     </g>
     <g id="text_9">
      <!-- −6 -->
      <g transform="translate(35.857813 292.375219)scale(0.1 -0.1)">
       <use xlink:href="#DejaVuSans-2212"/>
       <use x="83.789062" xlink:href="#DejaVuSans-36"/>
      </g>
     </g>
    </g>
    <g id="ytick_2">
     <g id="line2d_9">
      <g>
       <use style="stroke:#000000;stroke-width:0.8;" x="57.6" xlink:href="#m91866342c6" y="250.56"/>
      </g>
     </g>
     <g id="text_10">
      <!-- −4 -->
      <g transform="translate(35.857813 254.359219)scale(0.1 -0.1)">
       <use xlink:href="#DejaVuSans-2212"/>
       <use x="83.789062" xlink:href="#DejaVuSans-34"/>
      </g>
     </g>
    </g>
    <g id="ytick_3">
     <g id="line2d_10">
      <g>
       <use style="stroke:#000000;stroke-width:0.8;" x="57.6" xlink:href="#m91866342c6" y="212.544"/>
      </g>
     </g>
     <g id="text_11">
      <!-- −2 -->
      <g transform="translate(35.857813 216.343219)scale(0.1 -0.1)">
       <use xlink:href="#DejaVuSans-2212"/>
       <use x="83.789062" xlink:href="#DejaVuSans-32"/>
      </g>
     </g>
    </g>
    <g id="ytick_4">
     <g id="line2d_11">
      <g>
       <use style="stroke:#000000;stroke-width:0.8;" x="57.6" xlink:href="#m91866342c6" y="174.528"/>
      </g>
     </g>
     <g id="text_12">
      <!-- 0 -->
      <g transform="translate(44.2375 178.327219)scale(0.1 -0.1)">
       <use xlink:href="#DejaVuSans-30"/>
      </g>
     </g>
    </g>
    <g id="ytick_5">
     <g id="line2d_12">
      <g>
       <use style="stroke:#000000;stroke-width:0.8;" x="57.6" xlink:href="#m91866342c6" y="136.512"/>
      </g>
     </g>
     <g id="text_13">
      <!-- 2 -->
      <g transform="translate(44.2375 140.311219)scale(0.1 -0.1)">
       <use xlink:href="#DejaVuSans-32"/>
      </g>
     </g>
    </g>
    <g id="ytick_6">
     <g id="line2d_13">
      <g>
       <use style="stroke:#000000;stroke-width:0.8;" x="57.6" xlink:href="#m91866342c6" y="98.496"/>
      </g>
     </g>
     <g id="text_14">
      <!-- 4 -->
      <g transform="translate(44.2375 102.295219)scale(0.1 -0.1)">
       <use xlink:href="#DejaVuSans-34"/>
      </g>
     </g>
    </g>
    <g id="ytick_7">
     <g id="line2d_14">
      <g>
       <use style="stroke:#000000;stroke-width:0.8;" x="57.6" xlink:href="#m91866342c6" y="60.48"/>
      </g>
     </g>
     <g id="text_15">
      <!-- 6 -->
      <g transform="translate(44.2375 64.279219)scale(0.1 -0.1)">
       <use xlink:href="#DejaVuSans-36"/>
      </g>
     </g>
    </g>
    <g id="text_16">
     <!-- principal component 2 -->
     <g transform="translate(29.778125 230.727219)rotate(-90)scale(0.1 -0.1)">
      <use xlink:href="#DejaVuSans-70"/>
      <use x="63.476562" xlink:href="#DejaVuSans-72"/>
      <use x="104.589844" xlink:href="#DejaVuSans-69"/>
      <use x="132.373047" xlink:href="#DejaVuSans-6e"/>
      <use x="195.751953" xlink:href="#DejaVuSans-63"/>
      <use x="250.732422" xlink:href="#DejaVuSans-69"/>
      <use x="278.515625" xlink:href="#DejaVuSans-70"/>
      <use x="341.992188" xlink:href="#DejaVuSans-61"/>
      <use x="403.271484" xlink:href="#DejaVuSans-6c"/>
      <use x="431.054688" xlink:href="#DejaVuSans-20"/>
      <use x="462.841797" xlink:href="#DejaVuSans-63"/>
      <use x="517.822266" xlink:href="#DejaVuSans-6f"/>
      <use x="579.003906" xlink:href="#DejaVuSans-6d"/>
      <use x="676.416016" xlink:href="#DejaVuSans-70"/>
      <use x="739.892578" xlink:href="#DejaVuSans-6f"/>
      <use x="801.074219" xlink:href="#DejaVuSans-6e"/>
      <use x="864.453125" xlink:href="#DejaVuSans-65"/>
      <use x="925.976562" xlink:href="#DejaVuSans-6e"/>
      <use x="989.355469" xlink:href="#DejaVuSans-74"/>
      <use x="1028.564453" xlink:href="#DejaVuSans-20"/>
      <use x="1060.351562" xlink:href="#DejaVuSans-32"/>
     </g>
    </g>
   </g>
   <g id="patch_3">
    <path d="M 57.6 307.584 
L 57.6 41.472 
" style="fill:none;stroke:#000000;stroke-linecap:square;stroke-linejoin:miter;stroke-width:0.8;"/>
   </g>
   <g id="patch_4">
    <path d="M 414.72 307.584 
L 414.72 41.472 
" style="fill:none;stroke:#000000;stroke-linecap:square;stroke-linejoin:miter;stroke-width:0.8;"/>
   </g>
   <g id="patch_5">
    <path d="M 57.6 307.584 
L 414.72 307.584 
" style="fill:none;stroke:#000000;stroke-linecap:square;stroke-linejoin:miter;stroke-width:0.8;"/>
   </g>
   <g id="patch_6">
    <path d="M 57.6 41.472 
L 414.72 41.472 
" style="fill:none;stroke:#000000;stroke-linecap:square;stroke-linejoin:miter;stroke-width:0.8;"/>
   </g>
   <g id="legend_1">
    <g id="patch_7">
     <path d="M 319.75125 78.82825 
L 407.72 78.82825 
Q 409.72 78.82825 409.72 76.82825 
L 409.72 48.472 
Q 409.72 46.472 407.72 46.472 
L 319.75125 46.472 
Q 317.75125 46.472 317.75125 48.472 
L 317.75125 76.82825 
Q 317.75125 78.82825 319.75125 78.82825 
z
" style="fill:#ffffff;opacity:0.8;stroke:#cccccc;stroke-linejoin:miter;"/>
    </g>
    <g id="PathCollection_85">
     <g>
      <use style="stroke:#000000;" x="331.75125" xlink:href="#m19286ca9a3" y="55.445437"/>
     </g>
    </g>
    <g id="text_17">
     <!-- pathogenic -->
     <defs>
      <path d="M 54.890625 33.015625 
L 54.890625 0 
L 45.90625 0 
L 45.90625 32.71875 
Q 45.90625 40.484375 42.875 44.328125 
Q 39.84375 48.1875 33.796875 48.1875 
Q 26.515625 48.1875 22.3125 43.546875 
Q 18.109375 38.921875 18.109375 30.90625 
L 18.109375 0 
L 9.078125 0 
L 9.078125 75.984375 
L 18.109375 75.984375 
L 18.109375 46.1875 
Q 21.34375 51.125 25.703125 53.5625 
Q 30.078125 56 35.796875 56 
Q 45.21875 56 50.046875 50.171875 
Q 54.890625 44.34375 54.890625 33.015625 
z
" id="DejaVuSans-68"/>
      <path d="M 45.40625 27.984375 
Q 45.40625 37.75 41.375 43.109375 
Q 37.359375 48.484375 30.078125 48.484375 
Q 22.859375 48.484375 18.828125 43.109375 
Q 14.796875 37.75 14.796875 27.984375 
Q 14.796875 18.265625 18.828125 12.890625 
Q 22.859375 7.515625 30.078125 7.515625 
Q 37.359375 7.515625 41.375 12.890625 
Q 45.40625 18.265625 45.40625 27.984375 
z
M 54.390625 6.78125 
Q 54.390625 -7.171875 48.1875 -13.984375 
Q 42 -20.796875 29.203125 -20.796875 
Q 24.46875 -20.796875 20.265625 -20.09375 
Q 16.0625 -19.390625 12.109375 -17.921875 
L 12.109375 -9.1875 
Q 16.0625 -11.328125 19.921875 -12.34375 
Q 23.78125 -13.375 27.78125 -13.375 
Q 36.625 -13.375 41.015625 -8.765625 
Q 45.40625 -4.15625 45.40625 5.171875 
L 45.40625 9.625 
Q 42.625 4.78125 38.28125 2.390625 
Q 33.9375 0 27.875 0 
Q 17.828125 0 11.671875 7.65625 
Q 5.515625 15.328125 5.515625 27.984375 
Q 5.515625 40.671875 11.671875 48.328125 
Q 17.828125 56 27.875 56 
Q 33.9375 56 38.28125 53.609375 
Q 42.625 51.21875 45.40625 46.390625 
L 45.40625 54.6875 
L 54.390625 54.6875 
z
" id="DejaVuSans-67"/>
     </defs>
     <g transform="translate(349.75125 58.070437)scale(0.1 -0.1)">
      <use xlink:href="#DejaVuSans-70"/>
      <use x="63.476562" xlink:href="#DejaVuSans-61"/>
      <use x="124.755859" xlink:href="#DejaVuSans-74"/>
      <use x="163.964844" xlink:href="#DejaVuSans-68"/>
      <use x="227.34375" xlink:href="#DejaVuSans-6f"/>
      <use x="288.525391" xlink:href="#DejaVuSans-67"/>
      <use x="352.001953" xlink:href="#DejaVuSans-65"/>
      <use x="413.525391" xlink:href="#DejaVuSans-6e"/>
      <use x="476.904297" xlink:href="#DejaVuSans-69"/>
      <use x="504.6875" xlink:href="#DejaVuSans-63"/>
     </g>
    </g>
    <g id="PathCollection_86">
     <g>
      <use style="fill:#ffffff;stroke:#000000;" x="331.75125" xlink:href="#m4a6ea913fb" y="70.123562"/>
     </g>
    </g>
    <g id="text_18">
     <!-- benign -->
     <defs>
      <path d="M 48.6875 27.296875 
Q 48.6875 37.203125 44.609375 42.84375 
Q 40.53125 48.484375 33.40625 48.484375 
Q 26.265625 48.484375 22.1875 42.84375 
Q 18.109375 37.203125 18.109375 27.296875 
Q 18.109375 17.390625 22.1875 11.75 
Q 26.265625 6.109375 33.40625 6.109375 
Q 40.53125 6.109375 44.609375 11.75 
Q 48.6875 17.390625 48.6875 27.296875 
z
M 18.109375 46.390625 
Q 20.953125 51.265625 25.265625 53.625 
Q 29.59375 56 35.59375 56 
Q 45.5625 56 51.78125 48.09375 
Q 58.015625 40.1875 58.015625 27.296875 
Q 58.015625 14.40625 51.78125 6.484375 
Q 45.5625 -1.421875 35.59375 -1.421875 
Q 29.59375 -1.421875 25.265625 0.953125 
Q 20.953125 3.328125 18.109375 8.203125 
L 18.109375 0 
L 9.078125 0 
L 9.078125 75.984375 
L 18.109375 75.984375 
z
" id="DejaVuSans-62"/>
     </defs>
     <g transform="translate(349.75125 72.748562)scale(0.1 -0.1)">
      <use xlink:href="#DejaVuSans-62"/>
      <use x="63.476562" xlink:href="#DejaVuSans-65"/>
      <use x="125" xlink:href="#DejaVuSans-6e"/>
      <use x="188.378906" xlink:href="#DejaVuSans-69"/>
      <use x="216.162109" xlink:href="#DejaVuSans-67"/>
      <use x="279.638672" xlink:href="#DejaVuSans-6e"/>
     </g>
    </g>
   </g>
  </g>
 </g>
 <defs>
  <clipPath id="pd592d096cd">
   <rect height="266.112" width="357.12" x="57.6" y="41.472"/>
  </clipPath>
 </defs>
</svg>
